# xmcd CD database file
#
# Track frame offsets:
#	150
#	24826
#	34190
#	66816
#	80148
#	153724
#	168882
#	189648
#	210368
#	225758
#	247175
#	270050
#	287285
#	312715
#
# Disc length: 4378 seconds
#
# Revision: 0
# Processed by: cddbd v1.5PL3 Copyright (c) Steve Scherf et al.
# Submitted via: CDex 1.50
#
DISCID=b111180e
DTITLE=FrontWing - 「私立アキハバラ学園」 ドラマ＆サウンドトラック
DYEAR=1900
DGENRE=Game
TTITLE0=オリジナルドラマ 第1話 琴美の 「お兄ちゃんてオタク？」 の巻
TTITLE1=アキバで抱きしめて 〜 HOLD ON ME @ AKIHABARA 〜
TTITLE2=オリジナルドラマ 第2話 ヒメ子の 「萌え声優目指すなり！」 の巻
TTITLE3=LINK
TTITLE4=オリジナルドラマ 第3話 なみ先生の 「ももいろ採点」 の巻
TTITLE5=プカプカ
TTITLE6=farewells
TTITLE7=朝日の向こう
TTITLE8=ONLY YOUR WATCH
TTITLE9=CHANGE OF LIFE
TTITLE10=TO LATE
TTITLE11=恋
TTITLE12=BITE
TTITLE13=とおせんぼ
EXTD=
EXTT0=
EXTT1=
EXTT2=
EXTT3=
EXTT4=
EXTT5=
EXTT6=
EXTT7=
EXTT8=
EXTT9=
EXTT10=
EXTT11=
EXTT12=
EXTT13=
PLAYORDER=
